<svg xmlns="http://www.w3.org/2000/svg" width="151" height="30" viewBox="0 0 151 30" fill="none"><path d="M19.5272 7.69766C19.678 9.81245 19.3904 13.2175 18.9472 18.4026C18.4238 24.5384 14.9156 27.6087 8.55476 27.6087C2.71727 27.6087 -0.45609 24.4026 0.0531572 18.4026C0.505821 13.0816 3.42928 9.88036 8.08323 8.99272L8.55947 11.9272C5.48984 12.9507 3.66504 14.9248 3.39627 18.0631C3.08978 21.6766 4.9193 23.5198 9.22904 23.5198C13.1427 23.5198 15.3306 21.9483 15.6041 18.747C16.0284 13.7704 15.9577 10.7001 15.8398 8.17785L19.5272 7.70251V7.69766ZM40.8495 9.53597L41.1702 5.78658H35.9315C33.4136 5.78658 31.4332 5.65077 30.5986 5.37914L29.8818 9.12854C30.7872 9.40016 32.5648 9.53597 35.2855 9.53597H40.8542H40.8495ZM125.601 16.6952L126.064 11.2385C126.148 10.215 125.366 9.3274 124.248 9.19159C120.702 8.7793 118.514 8.03234 116.063 6.46079L114.247 9.87066C115.987 11.2385 117.859 11.8496 122.636 12.6015L122.258 17.0348C122.093 18.9458 120.207 20.1051 117.359 20.1051C115.765 20.1051 113.276 19.7656 111.46 19.2902L110.475 23.0396C112.535 23.7914 114.818 24.1989 117.34 24.1989C122.31 24.1989 125.182 21.6087 125.601 16.6952ZM14.562 3.73969H10.2522L9.93633 7.48909H14.2461L14.5667 3.73969H14.562ZM150.988 10.5594L150.611 14.9927C150.083 21.1964 147.079 24.5384 142.176 24.5384C138.262 24.5384 136.513 21.7445 137.102 16.3557L137.588 11.9709C136.168 12.0922 134.108 12.3735 133.245 12.6063L132.608 20.1099C132.057 26.5901 129.119 30 124.475 30C123.084 30 121.509 29.7963 120.085 29.384L120.834 26.042C122.541 26.2458 123.734 26.2458 124.465 26.2458C127.049 26.2458 128.968 23.9272 129.294 20.1099L130.043 11.3112C130.128 10.2878 130.868 9.40501 131.745 9.19644C133.434 8.82296 136.3 8.36702 138.139 8.18755C137.715 7.76556 137.357 7.30477 137.05 6.81002L139.271 4.08407C141.572 6.67421 144.255 7.83347 149.503 8.51738C150.55 8.65319 151.087 9.40501 150.988 10.5643V10.5594ZM147.56 11.9272C144.887 11.5053 142.756 10.9281 141.072 10.1568L140.445 16.0162C140.124 19.0137 140.865 20.4495 142.855 20.4495C145.439 20.4495 146.999 18.4705 147.296 14.9927L147.556 11.9272H147.56ZM103.798 14.6532L103.652 16.3557C103.218 21.439 99.8232 23.6556 92.1798 23.8448C91.0528 27.9968 88.1388 29.9952 83.2679 29.9952C81.2781 29.9952 78.4631 29.5877 76.5911 28.9717L77.5436 25.5618C79.6325 25.9693 81.9948 26.2409 83.2538 26.2409C86.5497 26.2409 88.1859 25.5424 88.8979 23.5344C82.1221 24.1601 79.7881 22.574 80.203 17.7187L80.4058 15.3323C80.8584 10.0113 83.1265 7.48909 87.5022 7.48909C88.6952 7.48909 90.388 7.82862 91.6045 8.37672C92.9483 8.99272 93.5943 9.94341 93.434 11.8545L92.7597 19.7607C98.2813 19.6783 100.125 18.8876 100.314 16.7001L100.46 14.9976C100.719 11.9321 100.601 11.7914 95.5983 8.99757L96.5272 5.11237C102.252 4.02102 108.141 1.83832 111.017 0L112.385 3.40986C110.461 4.72918 105.505 6.68876 100.686 7.55214C104.029 9.61843 104.152 10.5352 103.803 14.6629L103.798 14.6532ZM90.1098 11.9224C88.7612 11.3743 87.6484 11.2385 86.8515 11.2385C84.9937 11.2385 83.9611 12.4656 83.7442 14.9879L83.5414 17.3743C83.3528 19.5764 84.5175 20.0808 89.4355 19.7801L90.105 11.9175L90.1098 11.9224ZM76.9071 11.2385L76.544 17.0348C76.2799 21.6718 73.8799 24.194 69.8342 24.194C67.7878 24.194 64.7606 23.6653 61.6721 22.3703C57.7678 23.8545 52.1567 24.5335 44.6123 24.5335C39.7462 24.5335 36.6199 23.6362 35.2006 21.8755C34.6018 25.5618 32.0084 27.6039 27.7788 27.6039C23.5493 27.6039 21.9932 25.4891 22.4223 20.4398C22.7335 16.7583 23.2758 12.7373 23.6954 7.82377C23.8652 5.84479 23.9783 3.72999 23.7803 1.34357L27.4016 0.86823C27.5761 2.7114 27.345 5.43735 27.1706 7.48424C26.7273 12.7373 26.0531 16.7583 25.7654 20.1002C25.5532 22.6225 26.2747 23.5101 28.4578 23.5101C31.0418 23.5101 32.1687 22.7583 32.3385 20.7793L33.0316 12.5966H36.3465L36.0588 16.0065C35.8183 18.8682 38.9964 20.4398 45.296 20.4398C49.8839 20.4398 53.5996 20.2458 56.5419 19.8383C56.2637 18.8682 56.1411 17.6071 56.2495 16.3508L56.3344 15.3274C56.6126 12.0776 57.749 9.7688 59.4983 8.45433C58.3997 7.81407 57.6028 7.15441 57.0888 6.46564L59.338 3.39531C61.7569 6.12611 67.4105 8.23606 75.0634 9.46322C76.3695 9.66694 76.9872 10.215 76.9023 11.2385H76.9071ZM65.7366 13.9693C65.9205 11.7866 65.1661 10.5594 63.0442 10.5594C61.1864 10.5594 59.9321 12.0631 59.7152 14.6532L59.6257 15.6766C59.4936 17.2821 59.8567 18.3007 60.762 18.9604C63.9825 17.9612 65.5244 16.4382 65.7083 14.3137L65.7366 13.9741V13.9693ZM73.4461 12.9458C71.7439 12.5772 70.1878 12.2086 68.7591 11.8399C68.8015 12.388 68.8015 12.9846 68.7449 13.6298L68.7167 13.9693C68.5186 16.2975 67.6652 18.2037 66.0903 19.7268C67.5426 19.9693 69.0184 20.1099 70.1831 20.1099C72.1069 20.1099 73.1066 19.2223 73.2009 17.3791L73.4461 12.9458Z" fill="white"></path></svg>